<svg width="50" height="50" viewBox="0 0 32 32" xmlns="http://www.w3.org/2000/svg"><defs><clipPath id="a"><path d="M0 0h32v32H0z"/></clipPath></defs><g clip-path="url(#a)"><g data-name="Group 2119"><g data-name="Group 2118"><g data-name="Group 2117"><g data-name="Group 2116"><path data-name="Path 3787" d="M27.583 30.251H4.417a3.761 3.761 0 0 1-3.5-6.06L12.5 4.13a3.761 3.761 0 0 1 7 0l11.583 20.061a3.761 3.761 0 0 1-3.5 6.06M16 3.749a2.31 2.31 0 0 0-1.767 1.381L2.65 25.191a1.821 1.821 0 0 0 1.767 3.06h23.166a1.821 1.821 0 0 0 1.767-3.06L17.767 5.13A2.31 2.31 0 0 0 16 3.749" fill="red"/></g></g></g></g><g data-name="Group 2123"><g data-name="Group 2122"><g data-name="Group 2121"><g data-name="Group 2120"><path data-name="Path 3788" d="M16 21.55a1.66 1.66 0 0 1-1.656-1.656v-7.988a1.656 1.656 0 0 1 3.312 0v7.988A1.66 1.66 0 0 1 16 21.55m0-10.3a.656.656 0 0 0-.656.656v7.988a.656.656 0 0 0 1.312 0v-7.988A.656.656 0 0 0 16 11.25" fill="red"/></g></g></g></g><g data-name="Group 2127"><g data-name="Group 2126"><g data-name="Group 2125"><g data-name="Group 2124"><path data-name="Path 3789" d="M16 25.514a1.657 1.657 0 1 1 1.656-1.657A1.66 1.66 0 0 1 16 25.514m0-2.313a.657.657 0 1 0 .656.656A.656.656 0 0 0 16 23.2Z" fill="red"/></g></g></g></g></g></svg>