<svg xmlns="http://www.w3.org/2000/svg" width="47" height="42" viewBox="0 0 48 42" fill="none">
  <path d="M3.5 42C2.56667 42 1.75 41.65 1.05 40.95C0.35 40.25 0 39.4333 0 38.5V3.5C0 2.56667 0.35 1.75 1.05 1.05C1.75 0.35 2.56667 0 3.5 0H44.1C45.0333 0 45.85 0.35 46.55 1.05C47.25 1.75 47.6 2.56667 47.6 3.5V38.5C47.6 39.4333 47.25 40.25 46.55 40.95C45.85 41.65 45.0333 42 44.1 42H3.5ZM3.5 38.5H44.1V3.5H3.5V38.5ZM7.46667 32.6667H19.1333V28H7.46667V32.6667ZM29.75 28L41.3 16.45L37.975 13.125L29.75 21.4083L26.425 18.0833L23.1583 21.4083L29.75 28ZM7.46667 23.3333H19.1333V18.6667H7.46667V23.3333ZM7.46667 14H19.1333V9.33333H7.46667V14Z" fill="#FFC11D"/>
</svg>