<svg xmlns="http://www.w3.org/2000/svg" width="47" height="42" viewBox="0 0 48 42" fill="none">
  <path d="M4.33125 42C3.10625 42 2.07812 41.5844 1.24687 40.7531C0.415625 39.9219 0 38.8937 0 37.6688C0 36.4438 0.415625 35.4156 1.24687 34.5844C2.07812 33.7531 3.10625 33.3375 4.33125 33.3375C5.55625 33.3375 6.58437 33.7531 7.41563 34.5844C8.24687 35.4156 8.6625 36.4438 8.6625 37.6688C8.6625 38.8937 8.24687 39.9219 7.41563 40.7531C6.58437 41.5844 5.55625 42 4.33125 42ZM4.33125 25.3313C3.10625 25.3313 2.07812 24.9156 1.24687 24.0844C0.415625 23.2531 0 22.225 0 21C0 19.775 0.415625 18.7469 1.24687 17.9156C2.07812 17.0844 3.10625 16.6687 4.33125 16.6687C5.55625 16.6687 6.58437 17.0844 7.41563 17.9156C8.24687 18.7469 8.6625 19.775 8.6625 21C8.6625 22.225 8.24687 23.2531 7.41563 24.0844C6.58437 24.9156 5.55625 25.3313 4.33125 25.3313ZM4.33125 8.6625C3.10625 8.6625 2.07812 8.24687 1.24687 7.41563C0.415625 6.58437 0 5.55625 0 4.33125C0 3.10625 0.415625 2.07812 1.24687 1.24687C2.07812 0.415625 3.10625 0 4.33125 0C5.55625 0 6.58437 0.415625 7.41563 1.24687C8.24687 2.07812 8.6625 3.10625 8.6625 4.33125C8.6625 5.55625 8.24687 6.58437 7.41563 7.41563C6.58437 8.24687 5.55625 8.6625 4.33125 8.6625ZM21 8.6625C19.775 8.6625 18.7469 8.24687 17.9156 7.41563C17.0844 6.58437 16.6687 5.55625 16.6687 4.33125C16.6687 3.10625 17.0844 2.07812 17.9156 1.24687C18.7469 0.415625 19.775 0 21 0C22.225 0 23.2531 0.415625 24.0844 1.24687C24.9156 2.07812 25.3313 3.10625 25.3313 4.33125C25.3313 5.55625 24.9156 6.58437 24.0844 7.41563C23.2531 8.24687 22.225 8.6625 21 8.6625ZM37.6688 8.6625C36.4438 8.6625 35.4156 8.24687 34.5844 7.41563C33.7531 6.58437 33.3375 5.55625 33.3375 4.33125C33.3375 3.10625 33.7531 2.07812 34.5844 1.24687C35.4156 0.415625 36.4438 0 37.6688 0C38.8937 0 39.9219 0.415625 40.7531 1.24687C41.5844 2.07812 42 3.10625 42 4.33125C42 5.55625 41.5844 6.58437 40.7531 7.41563C39.9219 8.24687 38.8937 8.6625 37.6688 8.6625ZM21.0104 25.3313C19.8222 25.3313 18.8016 24.9082 17.9484 24.062C17.0953 23.2159 16.6687 22.1987 16.6687 21.0104C16.6687 19.8222 17.0918 18.8016 17.938 17.9484C18.7841 17.0953 19.8013 16.6687 20.9896 16.6687C22.1778 16.6687 23.1984 17.0918 24.0516 17.938C24.9047 18.7841 25.3313 19.8013 25.3313 20.9896C25.3313 22.1778 24.9082 23.1984 24.062 24.0516C23.2159 24.9047 22.1987 25.3313 21.0104 25.3313ZM23.625 42V33.9281L38.1281 19.4906C38.5219 19.0969 38.9594 18.8125 39.4406 18.6375C39.9219 18.4625 40.4031 18.375 40.8844 18.375C41.4094 18.375 41.9125 18.4734 42.3937 18.6703C42.875 18.8672 43.3125 19.1625 43.7062 19.5563L46.1344 21.9844C46.5281 22.3781 46.8125 22.8156 46.9875 23.2969C47.1625 23.7781 47.25 24.2594 47.25 24.7406C47.25 25.2219 47.1516 25.7141 46.9547 26.2172C46.7578 26.7203 46.4645 27.1688 46.0747 27.5625L31.6969 42H23.625ZM27.5625 38.0625H30.0562L37.9969 30.0562L36.8156 28.8094L35.5688 27.6281L27.5625 35.5688V38.0625ZM36.8156 28.8094L35.5688 27.6281L37.9969 30.0562L36.8156 28.8094Z" fill="#FFC11D"/>
</svg>