<svg xmlns="http://www.w3.org/2000/svg" viewBox="0 0 56 56" xml:space="preserve"><path style="fill:#e9e9e0" d="M36.985 0H7.963C7.155 0 6.5.655 6.5 1.926V55c0 .345.655 1 1.463 1h40.074c.808 0 1.463-.655 1.463-1V12.978c0-.696-.093-.92-.257-1.085L37.607.257A.88.88 0 0 0 36.985 0"/><path style="fill:#d9d7ca" d="M37.5.151V12h11.849z"/><path style="fill:#cc4b4c" d="M19.514 33.324c-.348 0-.682-.113-.967-.326-1.041-.781-1.181-1.65-1.115-2.242.182-1.628 2.195-3.332 5.985-5.068 1.504-3.296 2.935-7.357 3.788-10.75-.998-2.172-1.968-4.99-1.261-6.643.248-.579.557-1.023 1.134-1.215a5 5 0 0 1 1.016-.172c.504 0 .947.649 1.261 1.049.295.376.964 1.173-.373 6.802 1.348 2.784 3.258 5.62 5.088 7.562 1.311-.237 2.439-.358 3.358-.358 1.566 0 2.515.365 2.902 1.117.32.622.189 1.349-.39 2.16-.557.779-1.325 1.191-2.22 1.191-1.216 0-2.632-.768-4.211-2.285-2.837.593-6.15 1.651-8.828 2.822-.836 1.774-1.637 3.203-2.383 4.251-1.025 1.435-1.909 2.105-2.784 2.105m2.662-5.126c-2.137 1.201-3.008 2.188-3.071 2.744-.01.092-.037.334.431.692.149-.047 1.019-.444 2.64-3.436m13.637-4.442c.815.627 1.014.944 1.547.944.234 0 .901-.01 1.21-.441.149-.209.207-.343.23-.415-.123-.065-.286-.197-1.175-.197-.505.001-1.14.023-1.812.109m-7.47-6.582a71 71 0 0 1-2.674 7.564 50 50 0 0 1 6.496-2.02c-1.35-1.568-2.699-3.526-3.822-5.544m-.607-8.462c-.098.033-1.33 1.757.096 3.216.949-2.115-.053-3.23-.096-3.216M48.037 56H7.963A1.463 1.463 0 0 1 6.5 54.537V39h43v15.537c0 .808-.655 1.463-1.463 1.463"/><path style="fill:#fff" d="M17.385 53h-1.641V42.924h2.898q.642 0 1.271.205.629.206 1.128.615.5.41.807.991c.307.581.308.822.308 1.306q0 .766-.26 1.388a2.9 2.9 0 0 1-.725 1.046q-.465.423-1.121.656c-.656.233-.921.232-1.449.232h-1.217V53zm0-8.832v3.992h1.504q.3 0 .595-.103.294-.102.54-.335.246-.232.396-.649t.15-1.032q0-.247-.068-.567a1.6 1.6 0 0 0-.28-.615 1.66 1.66 0 0 0-.595-.492q-.383-.198-1.012-.198zm14.834 3.514q0 1.244-.267 2.126c-.267.882-.403 1.08-.677 1.477s-.581.709-.923.937-.672.398-.991.513a4 4 0 0 1-.875.219q-.396.046-.588.046h-3.814V42.924h3.035q1.272 0 2.235.403c.963.403 1.176.627 1.6 1.073s.74.955.95 1.524q.315.855.315 1.758m-4.867 4.115q1.668 0 2.406-1.066c.738-1.066.738-1.741.738-3.09q0-.629-.15-1.244-.151-.615-.581-1.114c-.43-.499-.677-.602-1.169-.807s-1.13-.308-1.914-.308h-.957v7.629zm8.914-7.629v3.172h4.211v1.121h-4.211V53h-1.668V42.924H40.9v1.244z"/></svg>