<svg xmlns="http://www.w3.org/2000/svg" width="24" height="24" viewBox="0 0 24 24" fill="none">
<path d="M13.3333 24V21.3333H16V24H13.3333ZM10.6667 21.3333V14.6667H13.3333V21.3333H10.6667ZM21.3333 17.3333V12H24V17.3333H21.3333ZM18.6667 12V9.33333H21.3333V12H18.6667ZM2.66667 14.6667V12H5.33333V14.6667H2.66667ZM0 12V9.33333H2.66667V12H0ZM12 2.66667V0H14.6667V2.66667H12ZM1.66667 6.33333H6.33333V1.66667H1.66667V6.33333ZM0 8V0H8V8H0ZM1.66667 22.3333H6.33333V17.6667H1.66667V22.3333ZM0 24V16H8V24H0ZM17.6667 6.33333H22.3333V1.66667H17.6667V6.33333ZM16 8V0H24V8H16ZM18.6667 24V20H16V17.3333H21.3333V21.3333H24V24H18.6667ZM13.3333 14.6667V12H18.6667V14.6667H13.3333ZM8 14.6667V12H5.33333V9.33333H13.3333V12H10.6667V14.6667H8ZM9.33333 8V2.66667H12V5.33333H14.6667V8H9.33333ZM3 5V3H5V5H3ZM3 21V19H5V21H3ZM19 5V3H21V5H19Z" fill="#1C1B1F"/>
</svg>