<svg xmlns="http://www.w3.org/2000/svg" width="299" height="299" viewBox="0 0 299 299" fill="none">
<path d="M166.111 299V265.778H199.333V299H166.111ZM132.889 265.778V182.722H166.111V265.778H132.889ZM265.778 215.944V149.5H299V215.944H265.778ZM232.556 149.5V116.278H265.778V149.5H232.556ZM33.2222 182.722V149.5H66.4444V182.722H33.2222ZM0 149.5V116.278H33.2222V149.5H0ZM149.5 33.2222V0H182.722V33.2222H149.5ZM20.7639 78.9028H78.9028V20.7639H20.7639V78.9028ZM0 99.6667V0H99.6667V99.6667H0ZM20.7639 278.236H78.9028V220.097H20.7639V278.236ZM0 299V199.333H99.6667V299H0ZM220.097 78.9028H278.236V20.7639H220.097V78.9028ZM199.333 99.6667V0H299V99.6667H199.333ZM232.556 299V249.167H199.333V215.944H265.778V265.778H299V299H232.556ZM166.111 182.722V149.5H232.556V182.722H166.111ZM99.6667 182.722V149.5H66.4444V116.278H166.111V149.5H132.889V182.722H99.6667ZM116.278 99.6667V33.2222H149.5V66.4444H182.722V99.6667H116.278ZM37.375 62.2917V37.375H62.2917V62.2917H37.375ZM37.375 261.625V236.708H62.2917V261.625H37.375ZM236.708 62.2917V37.375H261.625V62.2917H236.708Z" fill="#1C1B1F"/>
</svg>