<!-- <svg fill="green" width="20" height="20" viewBox="0 0 24 24" xmlns="http://www.w3.org/2000/svg"><path fill-rule="evenodd" d="M12 2c5.523 0 10 4.477 10 10s-4.477 10-10 10S2 17.523 2 12 6.477 2 12 2m0 2a8 8 0 1 0 0 16 8 8 0 0 0 0-16m3.293 4.293L10 13.586l-1.293-1.293a1 1 0 1 0-1.414 1.414l2 2a1 1 0 0 0 1.414 0l6-6a1 1 0 1 0-1.414-1.414"/></svg> -->

<svg fill="green" width="20" height="20" viewBox="-3.5 0 19 19" xmlns="http://www.w3.org/2000/svg" class="cf-icon-svg"><path d="M4.63 15.638a1.03 1.03 0 0 1-.79-.37L.36 11.09a1.03 1.03 0 1 1 1.58-1.316l2.535 3.043L9.958 3.32a1.029 1.029 0 0 1 1.783 1.03L5.52 15.122a1.03 1.03 0 0 1-.803.511l-.088.004z"/></svg>