<svg xmlns="http://www.w3.org/2000/svg" width="42" height="42" viewBox="0 0 42 42" fill="none">
  <path d="M21.525 26.0925L33.495 14.1225L31.29 11.97L21.5775 21.735L16.485 16.6425L14.28 18.8475L21.525 26.0925ZM9.45 35.7C8.61 35.7 7.875 35.385 7.245 34.755C6.615 34.125 6.3 33.39 6.3 32.55V3.15C6.3 2.31 6.615 1.575 7.245 0.945C7.875 0.315 8.61 0 9.45 0H38.85C39.69 0 40.425 0.315 41.055 0.945C41.685 1.575 42 2.31 42 3.15V32.55C42 33.39 41.685 34.125 41.055 34.755C40.425 35.385 39.69 35.7 38.85 35.7H9.45ZM9.45 32.55H38.85V3.15H9.45V32.55ZM3.15 42C2.31 42 1.575 41.685 0.945 41.055C0.315 40.425 0 39.69 0 38.85V6.3H3.15V38.85H35.7V42H3.15Z" fill="#FFC11D"/>
</svg>