<svg xmlns="http://www.w3.org/2000/svg" width="53" height="42" viewBox="0 0 54 43" fill="none">
  <path d="M0 41.8241V35.5034C0 33.9793 0.381034 32.5784 1.1431 31.3009C1.90517 30.0233 3.04828 29.0483 4.57241 28.3759C7.8 26.9414 10.7586 25.9103 13.4483 25.2828C16.1379 24.6552 18.8276 24.3414 21.5172 24.3414C22.8172 24.3414 24.1957 24.4198 25.6526 24.5767C27.1095 24.7336 28.6 25.0138 30.1241 25.4172L26.8293 28.7121C25.9328 28.6224 25.0474 28.544 24.1733 28.4767C23.2991 28.4095 22.4138 28.3759 21.5172 28.3759C18.9172 28.3759 16.5526 28.6112 14.4233 29.0819C12.294 29.5526 9.54827 30.5276 6.18621 32.0069C5.42414 32.3655 4.875 32.881 4.53879 33.5535C4.20259 34.2259 4.03448 34.8759 4.03448 35.5034V37.7897H25.4845L29.519 41.8241H0ZM36.6465 42.9L27.1655 33.419L29.9897 30.5948L36.6465 37.2517L50.969 22.9293L53.7931 25.7534L36.6465 42.9ZM21.5172 20.1724C18.5586 20.1724 16.1379 19.231 14.2552 17.3483C12.3724 15.4655 11.431 13.0448 11.431 10.0862C11.431 7.12759 12.3724 4.7069 14.2552 2.82414C16.1379 0.94138 18.5586 0 21.5172 0C24.4759 0 26.8965 0.94138 28.7793 2.82414C30.6621 4.7069 31.6034 7.12759 31.6034 10.0862C31.6034 13.0448 30.6621 15.4655 28.7793 17.3483C26.8965 19.231 24.4759 20.1724 21.5172 20.1724ZM21.5172 16.1379C23.2655 16.1379 24.7112 15.5664 25.8543 14.4233C26.9974 13.2802 27.569 11.8345 27.569 10.0862C27.569 8.33793 26.9974 6.89224 25.8543 5.74914C24.7112 4.60603 23.2655 4.03448 21.5172 4.03448C19.769 4.03448 18.3233 4.60603 17.1802 5.74914C16.0371 6.89224 15.4655 8.33793 15.4655 10.0862C15.4655 11.8345 16.0371 13.2802 17.1802 14.4233C18.3233 15.5664 19.769 16.1379 21.5172 16.1379Z" fill="#FFC11D"/>
</svg>